<svg width="133" height="101" viewBox="0 0 133 101" fill="none" xmlns="http://www.w3.org/2000/svg">
<path d="M132.482 19.4722L129.579 35.9549H103.543L101.951 45.1328H120.682L117.872 60.7726H99.1417L94.7401 85.7776H73.9495L85.6559 19.4722H132.482Z" fill="#CCFF00"/>
<path d="M32.641 86.4331C27.0219 86.4331 22.0896 85.2781 17.844 82.968C13.5985 80.658 10.3207 77.4114 8.01063 73.2283C5.70055 68.9827 4.54552 64.1441 4.54552 58.7123C4.54552 50.7831 6.16881 43.7904 9.4154 37.7343C12.7244 31.6157 17.3134 26.8707 23.1822 23.4992C29.1135 20.0653 35.9188 18.3484 43.5982 18.3484C49.3422 18.3484 54.337 19.5034 58.5825 21.8135C62.8905 24.0612 66.1995 27.2765 68.5096 31.4596C70.8197 35.5803 71.9747 40.3565 71.9747 45.7883C71.9747 53.6551 70.3202 60.6789 67.0112 66.86C63.7646 73.041 59.1444 77.8484 53.1507 81.2823C47.2194 84.7162 40.3829 86.4331 32.641 86.4331ZM35.8252 67.0473C39.0718 67.0473 41.8813 66.2044 44.2538 64.5187C46.6888 62.7705 48.5306 60.4916 49.7793 57.6821C51.0279 54.8101 51.6523 51.7196 51.6523 48.4106C51.6523 44.9767 50.7158 42.3232 48.8427 40.4502C47.0321 38.5147 44.4099 37.547 40.976 37.547C37.7294 37.547 34.8886 38.3898 32.4537 40.0756C30.0188 41.7613 28.1457 44.0402 26.8346 46.9121C25.5859 49.7217 24.9616 52.781 24.9616 56.09C24.9616 59.5239 25.8669 62.2086 27.6775 64.144C29.5505 66.0795 32.2664 67.0473 35.8252 67.0473Z" fill="#CCFF00"/>
<path d="M0.836031 38.0762C3.05613 44.3642 9.95326 47.6618 16.2412 45.4417L41.8581 36.397C49.718 33.6219 53.8401 25.0005 51.0649 17.1406C48.2898 9.28066 39.6684 5.15864 31.8085 7.93376C31.7136 7.96728 31.6192 8.00165 31.5254 8.03686C27.9138 2.00467 20.4431 -0.858034 13.557 1.57328C5.69709 4.34841 1.57506 12.9698 4.35019 20.8297C4.7289 21.9023 5.21649 22.9053 5.79616 23.8307C1.11486 26.7661 -1.08048 32.6482 0.836031 38.0762Z" fill="#CCFF00"/>
<path fill-rule="evenodd" clip-rule="evenodd" d="M94.7371 85.7529C94.5477 85.35 94.6382 84.8739 94.2816 84.8766L89.989 84.2009C89.9715 84.1981 89.9537 84.1971 89.936 84.1961C89.7086 84.1839 89.5281 83.9948 89.5298 83.764L89.5754 77.5952C89.5772 77.3429 89.3795 77.1399 89.1336 77.1418L80.1629 77.2097C79.9171 77.2116 79.7163 77.4176 79.7144 77.6699L79.6688 83.8516C79.6671 84.0863 79.4772 84.2762 79.2425 84.2779L74.5888 84.871C74.2321 84.8737 74.3015 85.4966 73.9761 85.7529L83.8977 100.51C84.0722 100.777 84.4571 100.774 84.6356 100.504L94.7371 85.7529Z" fill="#CCFF00"/>
</svg>
