<svg width="102" height="78" viewBox="0 0 102 78" fill="none" xmlns="http://www.w3.org/2000/svg">
<path d="M101.742 15.024L99.5102 27.696H79.4942L78.2702 34.752H92.6702L90.5102 46.776H76.1102L72.7262 66H56.7422L65.7422 15.024H101.742Z" fill="#CCFF00"/>
<path d="M24.984 66.504C20.664 66.504 16.872 65.616 13.608 63.84C10.344 62.064 7.82397 59.568 6.04797 56.352C4.27197 53.088 3.38397 49.368 3.38397 45.192C3.38397 39.096 4.63197 33.72 7.12797 29.064C9.67197 24.36 13.2 20.712 17.712 18.12C22.272 15.48 27.504 14.16 33.408 14.16C37.824 14.16 41.664 15.048 44.928 16.824C48.24 18.552 50.784 21.024 52.56 24.24C54.336 27.408 55.224 31.08 55.224 35.256C55.224 41.304 53.952 46.704 51.408 51.456C48.912 56.208 45.36 59.904 40.752 62.544C36.192 65.184 30.936 66.504 24.984 66.504ZM27.432 51.6C29.928 51.6 32.088 50.952 33.912 49.656C35.784 48.312 37.2 46.56 38.16 44.4C39.12 42.192 39.6 39.816 39.6 37.272C39.6 34.632 38.88 32.592 37.44 31.152C36.048 29.664 34.032 28.92 31.392 28.92C28.896 28.92 26.712 29.568 24.84 30.864C22.968 32.16 21.528 33.912 20.52 36.12C19.56 38.28 19.08 40.632 19.08 43.176C19.08 45.816 19.776 47.88 21.168 49.368C22.608 50.856 24.696 51.6 27.432 51.6Z" fill="#CCFF00"/>
<g filter="url(#filter0_d_1_53)">
<path d="M0.532096 29.3269C2.23893 34.1611 7.54148 36.6963 12.3757 34.9895L32.0702 28.0359C38.1129 25.9023 41.282 19.2741 39.1484 13.2314C37.0149 7.18863 30.3867 4.01959 24.3439 6.15313C24.271 6.1789 24.1984 6.20532 24.1263 6.23239C21.3496 1.5948 15.6062 -0.606066 10.3121 1.26314C4.26931 3.39668 1.10027 10.0249 3.23381 16.0676C3.52496 16.8923 3.89982 17.6634 4.34548 18.3748C0.746461 20.6315 -0.941334 25.1537 0.532096 29.3269Z" fill="#CCFF00"/>
<path d="M0.532096 29.3269C2.23893 34.1611 7.54148 36.6963 12.3757 34.9895L32.0702 28.0359C38.1129 25.9023 41.282 19.2741 39.1484 13.2314C37.0149 7.18863 30.3867 4.01959 24.3439 6.15313C24.271 6.1789 24.1984 6.20532 24.1263 6.23239C21.3496 1.5948 15.6062 -0.606066 10.3121 1.26314C4.26931 3.39668 1.10027 10.0249 3.23381 16.0676C3.52496 16.8923 3.89982 17.6634 4.34548 18.3748C0.746461 20.6315 -0.941334 25.1537 0.532096 29.3269Z" fill="white"/>
</g>
<g filter="url(#filter1_d_1_53)">
<path fill-rule="evenodd" clip-rule="evenodd" d="M72.7239 65.981C72.5782 65.6712 72.6479 65.3052 72.3736 65.3073L69.0735 64.7878C69.06 64.7857 69.0463 64.7849 69.0327 64.7841C68.8579 64.7748 68.7192 64.6294 68.7205 64.4519L68.7555 59.7093C68.7569 59.5153 68.6049 59.3593 68.4159 59.3607L61.5191 59.413C61.3301 59.4144 61.1758 59.5728 61.1743 59.7667L61.1392 64.5192C61.1379 64.6997 60.992 64.8457 60.8115 64.847L57.2337 65.303C56.9595 65.3051 57.0128 65.784 56.7627 65.981L64.3905 77.3262C64.5246 77.5314 64.8205 77.5291 64.9577 77.3219L72.7239 65.981Z" fill="#CCFF00"/>
<path fill-rule="evenodd" clip-rule="evenodd" d="M72.7239 65.981C72.5782 65.6712 72.6479 65.3052 72.3736 65.3073L69.0735 64.7878C69.06 64.7857 69.0463 64.7849 69.0327 64.7841C68.8579 64.7748 68.7192 64.6294 68.7205 64.4519L68.7555 59.7093C68.7569 59.5153 68.6049 59.3593 68.4159 59.3607L61.5191 59.413C61.3301 59.4144 61.1758 59.5728 61.1743 59.7667L61.1392 64.5192C61.1379 64.6997 60.992 64.8457 60.8115 64.847L57.2337 65.303C56.9595 65.3051 57.0128 65.784 56.7627 65.981L64.3905 77.3262C64.5246 77.5314 64.8205 77.5291 64.9577 77.3219L72.7239 65.981Z" fill="white"/>
</g>
<defs>
<filter id="filter0_d_1_53" x="0" y="0.598022" width="40.8135" height="35.9235" filterUnits="userSpaceOnUse" color-interpolation-filters="sRGB">
<feFlood flood-opacity="0" result="BackgroundImageFix"/>
<feColorMatrix in="SourceAlpha" type="matrix" values="0 0 0 0 0 0 0 0 0 0 0 0 0 0 0 0 0 0 127 0" result="hardAlpha"/>
<feOffset dx="1" dy="1"/>
<feComposite in2="hardAlpha" operator="out"/>
<feColorMatrix type="matrix" values="0 0 0 0 0.509906 0 0 0 0 0.6125 0 0 0 0 0.0995312 0 0 0 1 0"/>
<feBlend mode="normal" in2="BackgroundImageFix" result="effect1_dropShadow_1_53"/>
<feBlend mode="normal" in="SourceGraphic" in2="effect1_dropShadow_1_53" result="shape"/>
</filter>
<filter id="filter1_d_1_53" x="56.7627" y="58.3607" width="15.9612" height="19.118" filterUnits="userSpaceOnUse" color-interpolation-filters="sRGB">
<feFlood flood-opacity="0" result="BackgroundImageFix"/>
<feColorMatrix in="SourceAlpha" type="matrix" values="0 0 0 0 0 0 0 0 0 0 0 0 0 0 0 0 0 0 127 0" result="hardAlpha"/>
<feOffset dy="-1"/>
<feComposite in2="hardAlpha" operator="out"/>
<feColorMatrix type="matrix" values="0 0 0 0 0.509906 0 0 0 0 0.6125 0 0 0 0 0.0995312 0 0 0 1 0"/>
<feBlend mode="normal" in2="BackgroundImageFix" result="effect1_dropShadow_1_53"/>
<feBlend mode="normal" in="SourceGraphic" in2="effect1_dropShadow_1_53" result="shape"/>
</filter>
</defs>
</svg>
