<svg width="150" height="150" viewBox="0 0 150 150" fill="none" xmlns="http://www.w3.org/2000/svg">
<path d="M141.338 43.7641L138.435 60.2468H112.399L110.807 69.4246H129.538L126.728 85.0645H107.998L103.596 110.069H82.8055L94.512 43.7641H141.338Z" fill="#CCFF00"/>
<path d="M41.4971 110.725C35.878 110.725 30.9457 109.57 26.7001 107.26C22.4546 104.95 19.1768 101.703 16.8667 97.5201C14.5566 93.2746 13.4016 88.4359 13.4016 83.0041C13.4016 75.0749 15.0249 68.0823 18.2715 62.0261C21.5805 55.9076 26.1694 51.1626 32.0383 47.7911C37.9696 44.3572 44.7749 42.6403 52.4543 42.6403C58.1983 42.6403 63.1931 43.7953 67.4386 46.1054C71.7466 48.353 75.0556 51.5684 77.3657 55.7515C79.6757 59.8722 80.8308 64.6484 80.8308 70.0802C80.8308 77.9469 79.1763 84.9708 75.8673 91.1518C72.6207 97.3328 68.0005 102.14 62.0068 105.574C56.0755 109.008 49.239 110.725 41.4971 110.725ZM44.6813 91.3391C47.9278 91.3391 50.7374 90.4962 53.1099 88.8105C55.5448 87.0624 57.3867 84.7835 58.6354 81.9739C59.884 79.102 60.5084 76.0115 60.5084 72.7024C60.5084 69.2685 59.5719 66.6151 57.6988 64.742C55.8882 62.8066 53.266 61.8388 49.8321 61.8388C46.5855 61.8388 43.7447 62.6817 41.3098 64.3674C38.8749 66.0532 37.0018 68.332 35.6907 71.204C34.442 74.0136 33.8177 77.0728 33.8177 80.3819C33.8177 83.8158 34.723 86.5004 36.5336 88.4359C38.4066 90.3714 41.1225 91.3391 44.6813 91.3391Z" fill="#CCFF00"/>
<path d="M9.69211 62.3681C11.9122 68.656 18.8093 71.9536 25.0973 69.7335L50.7142 60.6889C58.5741 57.9137 62.6961 49.2923 59.921 41.4324C57.1459 33.5725 48.5245 29.4505 40.6646 32.2256C40.5696 32.2591 40.4753 32.2935 40.3814 32.3287C36.7698 26.2965 29.2992 23.4338 22.4131 25.8651C14.5532 28.6403 10.4311 37.2617 13.2063 45.1216C13.585 46.1942 14.0726 47.1972 14.6522 48.1226C9.97094 51.0579 7.77559 56.94 9.69211 62.3681Z" fill="#CCFF00"/>
<path fill-rule="evenodd" clip-rule="evenodd" d="M103.593 110.045C103.404 109.642 103.494 109.166 103.138 109.168L98.8451 108.493C98.8275 108.49 98.8098 108.489 98.792 108.488C98.5647 108.476 98.3842 108.287 98.3859 108.056L98.4315 101.887C98.4333 101.635 98.2356 101.432 97.9897 101.434L89.019 101.502C88.7731 101.503 88.5724 101.709 88.5705 101.962L88.5249 108.143C88.5231 108.378 88.3333 108.568 88.0986 108.57L83.4449 109.163C83.0882 109.166 83.1576 109.788 82.8322 110.045L92.7538 124.802C92.9283 125.069 93.3132 125.066 93.4916 124.796L103.593 110.045Z" fill="#CCFF00"/>
</svg>
