<svg width="25" height="25" viewBox="0 0 25 25" fill="none" xmlns="http://www.w3.org/2000/svg">
<g id="vuesax/bold/send">
<g id="send">
<path id="Vector" d="M18.6058 8.95862L10.0458 4.67862C4.29579 1.79862 1.93579 4.15862 4.81579 9.90862L5.68579 11.6486C5.93579 12.1586 5.93579 12.7486 5.68579 13.2586L4.81579 14.9886C1.93579 20.7386 4.28579 23.0986 10.0458 20.2186L18.6058 15.9386C22.4458 14.0186 22.4458 10.8786 18.6058 8.95862ZM15.3758 13.1986H9.97579C9.56579 13.1986 9.22579 12.8586 9.22579 12.4486C9.22579 12.0386 9.56579 11.6986 9.97579 11.6986H15.3758C15.7858 11.6986 16.1258 12.0386 16.1258 12.4486C16.1258 12.8586 15.7858 13.1986 15.3758 13.1986Z" fill="#171717"/>
</g>
</g>
</svg>
