<svg width="1200" height="630" viewBox="0 0 1200 630" fill="none" xmlns="http://www.w3.org/2000/svg">
<rect width="1200" height="630" fill="#0C0C0C"/>
<path d="M345.1 389.684V402.356H325.084V409.412H339.484V421.436H325.084V440.66H309.1V389.684H345.1ZM657.518 441.164C652.718 441.164 648.302 440.036 644.27 437.78C640.286 435.524 637.118 432.404 634.766 428.42C632.414 424.436 631.238 419.948 631.238 414.956C631.238 409.964 632.414 405.476 634.766 401.492C637.118 397.508 640.286 394.412 644.27 392.204C648.302 389.948 652.718 388.82 657.518 388.82C662.318 388.82 666.71 389.948 670.694 392.204C674.678 394.412 677.822 397.508 680.126 401.492C682.478 405.476 683.654 409.964 683.654 414.956C683.654 419.948 682.478 424.436 680.126 428.42C677.822 432.404 674.654 435.524 670.622 437.78C666.638 440.036 662.27 441.164 657.518 441.164ZM657.518 426.26C660.686 426.26 663.134 425.252 664.862 423.236C666.59 421.172 667.454 418.412 667.454 414.956C667.454 411.452 666.59 408.692 664.862 406.676C663.134 404.612 660.686 403.58 657.518 403.58C654.302 403.58 651.83 404.612 650.102 406.676C648.374 408.692 647.51 411.452 647.51 414.956C647.51 418.412 648.374 421.172 650.102 423.236C651.83 425.252 654.302 426.26 657.518 426.26Z" fill="#CCFF00"/>
<path d="M369.81 441.164C365.73 441.164 362.058 440.324 358.794 438.644C355.53 436.964 352.962 434.564 351.09 431.444C349.266 428.276 348.354 424.58 348.354 420.356C348.354 416.132 349.266 412.46 351.09 409.34C352.962 406.172 355.53 403.748 358.794 402.068C362.058 400.388 365.73 399.548 369.81 399.548C373.89 399.548 377.562 400.388 380.826 402.068C384.09 403.748 386.634 406.172 388.458 409.34C390.33 412.46 391.266 416.132 391.266 420.356C391.266 424.58 390.33 428.276 388.458 431.444C386.634 434.564 384.09 436.964 380.826 438.644C377.562 440.324 373.89 441.164 369.81 441.164ZM369.81 427.34C371.298 427.34 372.546 426.764 373.554 425.612C374.562 424.412 375.066 422.66 375.066 420.356C375.066 418.052 374.562 416.324 373.554 415.172C372.546 413.972 371.298 413.372 369.81 413.372C368.322 413.372 367.074 413.972 366.066 415.172C365.058 416.324 364.554 418.052 364.554 420.356C364.554 422.66 365.034 424.412 365.994 425.612C367.002 426.764 368.274 427.34 369.81 427.34ZM412.272 407.54C413.904 405.188 415.896 403.316 418.248 401.924C420.6 400.484 423.048 399.764 425.592 399.764V416.828H421.056C418.032 416.828 415.8 417.356 414.36 418.412C412.968 419.468 412.272 421.34 412.272 424.028V440.66H396.288V400.052H412.272V407.54ZM487.995 400.052L462.003 460.1H444.507L454.731 438.644L437.811 400.052H455.595L463.227 420.644L470.355 400.052H487.995ZM510.154 441.164C506.074 441.164 502.402 440.324 499.138 438.644C495.874 436.964 493.306 434.564 491.434 431.444C489.61 428.276 488.698 424.58 488.698 420.356C488.698 416.132 489.61 412.46 491.434 409.34C493.306 406.172 495.874 403.748 499.138 402.068C502.402 400.388 506.074 399.548 510.154 399.548C514.234 399.548 517.906 400.388 521.17 402.068C524.434 403.748 526.978 406.172 528.802 409.34C530.674 412.46 531.61 416.132 531.61 420.356C531.61 424.58 530.674 428.276 528.802 431.444C526.978 434.564 524.434 436.964 521.17 438.644C517.906 440.324 514.234 441.164 510.154 441.164ZM510.154 427.34C511.642 427.34 512.89 426.764 513.898 425.612C514.906 424.412 515.41 422.66 515.41 420.356C515.41 418.052 514.906 416.324 513.898 415.172C512.89 413.972 511.642 413.372 510.154 413.372C508.666 413.372 507.418 413.972 506.41 415.172C505.402 416.324 504.898 418.052 504.898 420.356C504.898 422.66 505.378 424.412 506.338 425.612C507.346 426.764 508.618 427.34 510.154 427.34ZM579.615 400.052V440.66H563.631V434.468C562.383 436.388 560.703 437.948 558.591 439.148C556.527 440.348 554.055 440.948 551.175 440.948C546.519 440.948 542.871 439.388 540.231 436.268C537.639 433.148 536.343 428.924 536.343 423.596V400.052H552.255V421.58C552.255 423.5 552.759 425.036 553.767 426.188C554.823 427.292 556.215 427.844 557.943 427.844C559.719 427.844 561.111 427.292 562.119 426.188C563.127 425.036 563.631 423.5 563.631 421.58V400.052H579.615ZM602.818 407.54C604.45 405.188 606.442 403.316 608.794 401.924C611.146 400.484 613.594 399.764 616.138 399.764V416.828H611.602C608.578 416.828 606.346 417.356 604.906 418.412C603.514 419.468 602.818 421.34 602.818 424.028V440.66H586.834V400.052H602.818V407.54ZM712.82 397.172C711.956 397.076 711.356 397.028 711.02 397.028C709.82 397.028 708.908 397.268 708.284 397.748C707.66 398.18 707.228 398.948 706.988 400.052H712.82V413.372H706.844V440.66H690.86V413.372H686.54V400.052H690.86C690.956 394.772 692.612 390.692 695.828 387.812C699.092 384.884 703.652 383.42 709.508 383.42C710.18 383.42 711.284 383.468 712.82 383.564V397.172ZM740.523 397.172C739.659 397.076 739.059 397.028 738.723 397.028C737.523 397.028 736.611 397.268 735.987 397.748C735.363 398.18 734.931 398.948 734.691 400.052H740.523V413.372H734.547V440.66H718.563V413.372H714.243V400.052H718.563C718.659 394.772 720.315 390.692 723.531 387.812C726.795 384.884 731.355 383.42 737.211 383.42C737.883 383.42 738.987 383.468 740.523 383.564V397.172ZM760.811 387.38V440.66H744.827V387.38H760.811ZM776.094 396.812C773.31 396.812 771.078 396.068 769.398 394.58C767.718 393.092 766.878 391.22 766.878 388.964C766.878 386.66 767.718 384.764 769.398 383.276C771.078 381.74 773.31 380.972 776.094 380.972C778.83 380.972 781.038 381.74 782.718 383.276C784.398 384.764 785.238 386.66 785.238 388.964C785.238 391.22 784.398 393.092 782.718 394.58C781.038 396.068 778.83 396.812 776.094 396.812ZM784.014 400.052V440.66H768.03V400.052H784.014ZM819.673 399.764C824.329 399.764 827.953 401.324 830.545 404.444C833.185 407.564 834.505 411.788 834.505 417.116V440.66H818.593V419.132C818.593 417.212 818.065 415.7 817.009 414.596C816.001 413.444 814.633 412.868 812.905 412.868C811.129 412.868 809.737 413.444 808.729 414.596C807.721 415.7 807.217 417.212 807.217 419.132V440.66H791.233V400.052H807.217V406.244C808.465 404.324 810.121 402.764 812.185 401.564C814.297 400.364 816.793 399.764 819.673 399.764ZM880.748 419.996C880.748 421.1 880.676 422.156 880.532 423.164H854.828C855.068 426.668 856.532 428.42 859.22 428.42C860.948 428.42 862.196 427.628 862.964 426.044H879.884C879.308 428.924 878.084 431.516 876.212 433.82C874.388 436.076 872.06 437.876 869.228 439.22C866.444 440.516 863.372 441.164 860.012 441.164C855.98 441.164 852.38 440.324 849.212 438.644C846.092 436.964 843.644 434.564 841.868 431.444C840.14 428.276 839.276 424.58 839.276 420.356C839.276 416.132 840.14 412.46 841.868 409.34C843.644 406.172 846.092 403.748 849.212 402.068C852.38 400.388 855.98 399.548 860.012 399.548C864.044 399.548 867.62 400.388 870.74 402.068C873.908 403.7 876.356 406.052 878.084 409.124C879.86 412.196 880.748 415.82 880.748 419.996ZM864.548 416.18C864.548 414.836 864.116 413.828 863.252 413.156C862.388 412.436 861.308 412.076 860.012 412.076C857.18 412.076 855.524 413.444 855.044 416.18H864.548ZM350.788 515.18C350.788 518.396 350.044 521.324 348.556 523.964C347.068 526.556 344.86 528.62 341.932 530.156C339.052 531.692 335.548 532.46 331.42 532.46H325.084V548.66H309.1V497.684H331.42C337.66 497.684 342.436 499.268 345.748 502.436C349.108 505.604 350.788 509.852 350.788 515.18ZM329.62 519.86C332.932 519.86 334.588 518.3 334.588 515.18C334.588 512.06 332.932 510.5 329.62 510.5H325.084V519.86H329.62ZM371.842 495.38V548.66H355.858V495.38H371.842ZM418.373 527.996C418.373 529.1 418.301 530.156 418.157 531.164H392.453C392.693 534.668 394.157 536.42 396.845 536.42C398.573 536.42 399.821 535.628 400.589 534.044H417.509C416.933 536.924 415.709 539.516 413.837 541.82C412.013 544.076 409.685 545.876 406.853 547.22C404.069 548.516 400.997 549.164 397.637 549.164C393.605 549.164 390.005 548.324 386.837 546.644C383.717 544.964 381.269 542.564 379.493 539.444C377.765 536.276 376.901 532.58 376.901 528.356C376.901 524.132 377.765 520.46 379.493 517.34C381.269 514.172 383.717 511.748 386.837 510.068C390.005 508.388 393.605 507.548 397.637 507.548C401.669 507.548 405.245 508.388 408.365 510.068C411.533 511.7 413.981 514.052 415.709 517.124C417.485 520.196 418.373 523.82 418.373 527.996ZM402.173 524.18C402.173 522.836 401.741 521.828 400.877 521.156C400.013 520.436 398.933 520.076 397.637 520.076C394.805 520.076 393.149 521.444 392.669 524.18H402.173ZM421.268 528.356C421.268 524.084 421.988 520.388 423.428 517.268C424.916 514.1 426.932 511.7 429.476 510.068C432.02 508.388 434.876 507.548 438.044 507.548C440.684 507.548 442.964 508.1 444.884 509.204C446.804 510.26 448.268 511.724 449.276 513.596V508.052H465.188V548.66H449.276V543.116C448.268 544.988 446.804 546.476 444.884 547.58C442.964 548.636 440.684 549.164 438.044 549.164C434.876 549.164 432.02 548.348 429.476 546.716C426.932 545.036 424.916 542.636 423.428 539.516C421.988 536.348 421.268 532.628 421.268 528.356ZM449.276 528.356C449.276 526.196 448.724 524.516 447.62 523.316C446.516 522.116 445.1 521.516 443.372 521.516C441.644 521.516 440.228 522.116 439.124 523.316C438.02 524.516 437.468 526.196 437.468 528.356C437.468 530.516 438.02 532.196 439.124 533.396C440.228 534.596 441.644 535.196 443.372 535.196C445.1 535.196 446.516 534.596 447.62 533.396C448.724 532.196 449.276 530.516 449.276 528.356ZM490.438 549.164C486.598 549.164 483.19 548.54 480.214 547.292C477.286 546.044 474.958 544.316 473.23 542.108C471.502 539.9 470.518 537.404 470.278 534.62H485.614C485.806 535.82 486.31 536.708 487.126 537.284C487.99 537.86 489.07 538.148 490.366 538.148C491.182 538.148 491.83 537.98 492.31 537.644C492.79 537.26 493.03 536.804 493.03 536.276C493.03 535.364 492.526 534.716 491.518 534.332C490.51 533.948 488.806 533.516 486.406 533.036C483.478 532.46 481.054 531.836 479.134 531.164C477.262 530.492 475.606 529.34 474.166 527.708C472.774 526.076 472.078 523.82 472.078 520.94C472.078 518.444 472.726 516.188 474.022 514.172C475.366 512.108 477.334 510.5 479.926 509.348C482.518 508.148 485.662 507.548 489.358 507.548C494.83 507.548 499.102 508.892 502.174 511.58C505.294 514.268 507.166 517.772 507.79 522.092H493.606C493.366 520.988 492.862 520.148 492.094 519.572C491.326 518.948 490.294 518.636 488.998 518.636C488.182 518.636 487.558 518.804 487.126 519.14C486.694 519.428 486.478 519.884 486.478 520.508C486.478 521.324 486.982 521.948 487.99 522.38C488.998 522.764 490.606 523.172 492.814 523.604C495.742 524.18 498.214 524.828 500.23 525.548C502.246 526.268 503.998 527.516 505.486 529.292C506.974 531.02 507.718 533.42 507.718 536.492C507.718 538.892 507.022 541.052 505.63 542.972C504.238 544.892 502.222 546.404 499.582 547.508C496.99 548.612 493.942 549.164 490.438 549.164ZM557.045 508.052V548.66H541.061V542.468C539.813 544.388 538.133 545.948 536.021 547.148C533.957 548.348 531.485 548.948 528.605 548.948C523.949 548.948 520.301 547.388 517.661 544.268C515.069 541.148 513.773 536.924 513.773 531.596V508.052H529.685V529.58C529.685 531.5 530.189 533.036 531.197 534.188C532.253 535.292 533.645 535.844 535.373 535.844C537.149 535.844 538.541 535.292 539.549 534.188C540.557 533.036 541.061 531.5 541.061 529.58V508.052H557.045ZM580.248 515.54C581.88 513.188 583.872 511.316 586.224 509.924C588.576 508.484 591.024 507.764 593.568 507.764V524.828H589.032C586.008 524.828 583.776 525.356 582.336 526.412C580.944 527.468 580.248 529.34 580.248 532.028V548.66H564.264V508.052H580.248V515.54ZM637.185 527.996C637.185 529.1 637.113 530.156 636.969 531.164H611.265C611.505 534.668 612.969 536.42 615.657 536.42C617.385 536.42 618.633 535.628 619.401 534.044H636.321C635.745 536.924 634.521 539.516 632.649 541.82C630.825 544.076 628.497 545.876 625.665 547.22C622.881 548.516 619.809 549.164 616.449 549.164C612.417 549.164 608.817 548.324 605.649 546.644C602.529 544.964 600.081 542.564 598.305 539.444C596.577 536.276 595.713 532.58 595.713 528.356C595.713 524.132 596.577 520.46 598.305 517.34C600.081 514.172 602.529 511.748 605.649 510.068C608.817 508.388 612.417 507.548 616.449 507.548C620.481 507.548 624.057 508.388 627.177 510.068C630.345 511.7 632.793 514.052 634.521 517.124C636.297 520.196 637.185 523.82 637.185 527.996ZM620.985 524.18C620.985 522.836 620.553 521.828 619.689 521.156C618.825 520.436 617.745 520.076 616.449 520.076C613.617 520.076 611.961 521.444 611.481 524.18H620.985ZM650.161 549.236C647.377 549.236 645.145 548.492 643.465 547.004C641.785 545.516 640.945 543.644 640.945 541.388C640.945 539.084 641.785 537.188 643.465 535.7C645.145 534.164 647.377 533.396 650.161 533.396C652.897 533.396 655.105 534.164 656.785 535.7C658.465 537.188 659.305 539.084 659.305 541.388C659.305 543.644 658.465 545.516 656.785 547.004C655.105 548.492 652.897 549.236 650.161 549.236ZM673.153 549.236C670.369 549.236 668.137 548.492 666.457 547.004C664.777 545.516 663.937 543.644 663.937 541.388C663.937 539.084 664.777 537.188 666.457 535.7C668.137 534.164 670.369 533.396 673.153 533.396C675.889 533.396 678.097 534.164 679.777 535.7C681.457 537.188 682.297 539.084 682.297 541.388C682.297 543.644 681.457 545.516 679.777 547.004C678.097 548.492 675.889 549.236 673.153 549.236ZM696.145 549.236C693.361 549.236 691.129 548.492 689.449 547.004C687.769 545.516 686.929 543.644 686.929 541.388C686.929 539.084 687.769 537.188 689.449 535.7C691.129 534.164 693.361 533.396 696.145 533.396C698.881 533.396 701.089 534.164 702.769 535.7C704.449 537.188 705.289 539.084 705.289 541.388C705.289 543.644 704.449 545.516 702.769 547.004C701.089 548.492 698.881 549.236 696.145 549.236Z" fill="white"/>
<path d="M775.953 108.632L767.222 158.08H688.922L684.134 185.614H740.465L732.015 232.533H675.684L662.447 307.548H599.92L635.126 108.632H775.953Z" fill="#CCFF00"/>
<path d="M475.686 309.515C458.787 309.515 443.953 306.05 431.185 299.119C418.417 292.189 408.559 282.449 401.612 269.9C394.664 257.163 391.19 242.647 391.19 226.352C391.19 202.565 396.072 181.587 405.836 163.418C415.788 145.062 429.589 130.827 447.239 120.713C465.077 110.411 485.544 105.26 508.64 105.26C525.914 105.26 540.936 108.726 553.704 115.656C566.66 122.399 576.612 132.045 583.559 144.594C590.507 156.956 593.981 171.285 593.981 187.58C593.981 211.18 589.005 232.252 579.053 250.795C569.289 269.338 555.394 283.761 537.368 294.062C519.53 304.364 498.97 309.515 475.686 309.515ZM485.263 251.357C495.027 251.357 503.476 248.828 510.611 243.771C517.934 238.527 523.474 231.69 527.229 223.262C530.984 214.646 532.862 205.374 532.862 195.447C532.862 185.145 530.045 177.185 524.412 171.566C518.967 165.759 511.081 162.856 500.753 162.856C490.989 162.856 482.446 165.385 475.123 170.442C467.8 175.499 462.167 182.336 458.224 190.952C454.468 199.38 452.591 208.558 452.591 218.485C452.591 228.787 455.313 236.841 460.759 242.647C466.392 248.454 474.56 251.357 485.263 251.357Z" fill="#CCFF00"/>
<path d="M380.034 164.444C386.711 183.308 407.454 193.201 426.365 186.54L503.406 159.406C527.045 151.081 539.442 125.217 531.096 101.637C522.749 78.0573 496.821 65.6912 473.183 74.0166C472.897 74.1171 472.613 74.2202 472.331 74.3259C461.469 56.2293 439.002 47.6412 418.292 54.9351C394.654 63.2605 382.257 89.1247 390.603 112.704C391.742 115.922 393.208 118.931 394.952 121.707C380.873 130.514 374.271 148.16 380.034 164.444Z" fill="#CCFF00"/>
<path fill-rule="evenodd" clip-rule="evenodd" d="M662.438 307.474C661.868 306.265 662.14 304.837 661.068 304.845L648.158 302.818C648.105 302.81 648.052 302.806 647.998 302.804C647.315 302.767 646.772 302.2 646.777 301.507L646.914 283.001C646.92 282.244 646.325 281.635 645.586 281.641L618.606 281.844C617.867 281.85 617.263 282.468 617.258 283.225L617.12 301.77C617.115 302.474 616.544 303.044 615.838 303.049L601.843 304.828C600.77 304.836 600.978 306.705 600 307.474L629.839 351.745C630.364 352.545 631.521 352.537 632.058 351.728L662.438 307.474Z" fill="#CCFF00"/>
</svg>
