<svg width="1920" height="1080" viewBox="0 0 1920 1080" fill="none" xmlns="http://www.w3.org/2000/svg">
<rect width="1920" height="1080" fill="#0C0C0C"/>
<path d="M162.482 34.4722L159.579 50.9549H133.543L131.951 60.1328H150.682L147.872 75.7726H129.142L124.74 100.778H103.949L115.656 34.4722H162.482Z" fill="#CCFF00"/>
<path d="M62.641 101.433C57.0219 101.433 52.0896 100.278 47.844 97.968C43.5985 95.658 40.3207 92.4114 38.0106 88.2283C35.7006 83.9827 34.5455 79.1441 34.5455 73.7123C34.5455 65.7831 36.1688 58.7904 39.4154 52.7343C42.7244 46.6157 47.3134 41.8707 53.1822 38.4992C59.1135 35.0653 65.9188 33.3484 73.5982 33.3484C79.3422 33.3484 84.337 34.5034 88.5825 36.8135C92.8905 39.0611 96.1995 42.2765 98.5096 46.4596C100.82 50.5803 101.975 55.3565 101.975 60.7883C101.975 68.6551 100.32 75.6789 97.0112 81.86C93.7646 88.041 89.1444 92.8484 83.1507 96.2823C77.2194 99.7162 70.3829 101.433 62.641 101.433ZM65.8252 82.0473C69.0718 82.0473 71.8813 81.2044 74.2538 79.5187C76.6888 77.7705 78.5306 75.4916 79.7793 72.6821C81.0279 69.8101 81.6523 66.7196 81.6523 63.4106C81.6523 59.9767 80.7158 57.3232 78.8427 55.4502C77.0321 53.5147 74.4099 52.547 70.976 52.547C67.7294 52.547 64.8886 53.3898 62.4537 55.0756C60.0188 56.7613 58.1457 59.0402 56.8346 61.9121C55.5859 64.7217 54.9616 67.781 54.9616 71.09C54.9616 74.5239 55.8669 77.2086 57.6775 79.144C59.5505 81.0795 62.2664 82.0473 65.8252 82.0473Z" fill="#CCFF00"/>
<g filter="url(#filter0_d_1_2)">
<path d="M30.836 53.0762C33.0561 59.3642 39.9533 62.6618 46.2412 60.4417L71.8581 51.397C79.718 48.6219 83.8401 40.0005 81.0649 32.1406C78.2898 24.2807 69.6684 20.1586 61.8085 22.9338C61.7136 22.9673 61.6192 23.0017 61.5254 23.0369C57.9138 17.0047 50.4431 14.142 43.557 16.5733C35.6971 19.3484 31.5751 27.9698 34.3502 35.8297C34.7289 36.9023 35.2165 37.9053 35.7962 38.8307C31.1149 41.7661 28.9195 47.6482 30.836 53.0762Z" fill="#CCFF00"/>
<path d="M30.836 53.0762C33.0561 59.3642 39.9533 62.6618 46.2412 60.4417L71.8581 51.397C79.718 48.6219 83.8401 40.0005 81.0649 32.1406C78.2898 24.2807 69.6684 20.1586 61.8085 22.9338C61.7136 22.9673 61.6192 23.0017 61.5254 23.0369C57.9138 17.0047 50.4431 14.142 43.557 16.5733C35.6971 19.3484 31.5751 27.9698 34.3502 35.8297C34.7289 36.9023 35.2165 37.9053 35.7962 38.8307C31.1149 41.7661 28.9195 47.6482 30.836 53.0762Z" fill="white"/>
</g>
<g filter="url(#filter1_d_1_2)">
<path fill-rule="evenodd" clip-rule="evenodd" d="M124.737 100.753C124.548 100.35 124.638 99.8739 124.282 99.8766L119.989 99.2009C119.971 99.1981 119.954 99.1971 119.936 99.1961C119.709 99.1839 119.528 98.9948 119.53 98.764L119.575 92.5952C119.577 92.3429 119.379 92.1399 119.134 92.1418L110.163 92.2097C109.917 92.2116 109.716 92.4176 109.714 92.6699L109.669 98.8516C109.667 99.0863 109.477 99.2762 109.242 99.2779L104.589 99.871C104.232 99.8737 104.301 100.497 103.976 100.753L113.898 115.51C114.072 115.777 114.457 115.774 114.636 115.504L124.737 100.753Z" fill="#CCFF00"/>
<path fill-rule="evenodd" clip-rule="evenodd" d="M124.737 100.753C124.548 100.35 124.638 99.8739 124.282 99.8766L119.989 99.2009C119.971 99.1981 119.954 99.1971 119.936 99.1961C119.709 99.1839 119.528 98.9948 119.53 98.764L119.575 92.5952C119.577 92.3429 119.379 92.1399 119.134 92.1418L110.163 92.2097C109.917 92.2116 109.716 92.4176 109.714 92.6699L109.669 98.8516C109.667 99.0863 109.477 99.2762 109.242 99.2779L104.589 99.871C104.232 99.8737 104.301 100.497 103.976 100.753L113.898 115.51C114.072 115.777 114.457 115.774 114.636 115.504L124.737 100.753Z" fill="white"/>
</g>
<path d="M708.484 529.055C704.164 529.055 700.372 528.167 697.108 526.391C693.844 524.615 691.324 522.119 689.548 518.903C687.772 515.639 686.884 511.919 686.884 507.743C686.884 501.647 688.132 496.271 690.628 491.615C693.172 486.911 696.7 483.263 701.212 480.671C705.772 478.031 711.004 476.711 716.908 476.711C721.324 476.711 725.164 477.599 728.428 479.375C731.74 481.103 734.284 483.575 736.06 486.791C737.836 489.959 738.724 493.631 738.724 497.807C738.724 503.855 737.452 509.255 734.908 514.007C732.412 518.759 728.86 522.455 724.252 525.095C719.692 527.735 714.436 529.055 708.484 529.055ZM710.932 514.151C713.428 514.151 715.588 513.503 717.412 512.207C719.284 510.863 720.7 509.111 721.66 506.951C722.62 504.743 723.1 502.367 723.1 499.823C723.1 497.183 722.38 495.143 720.94 493.703C719.548 492.215 717.532 491.471 714.892 491.471C712.396 491.471 710.212 492.119 708.34 493.415C706.468 494.711 705.028 496.463 704.02 498.671C703.06 500.831 702.58 503.183 702.58 505.727C702.58 508.367 703.276 510.431 704.668 511.919C706.108 513.407 708.196 514.151 710.932 514.151ZM1036.05 477.575L1033.81 490.247H1013.8L1012.57 497.303H1026.97L1024.81 509.327H1010.41L1007.03 528.551H991.047L1000.05 477.575H1036.05Z" fill="#CCFF00"/>
<path d="M785.242 477.575L783.01 490.247H762.994L761.77 497.303H776.17L774.01 509.327H759.61L756.226 528.551H740.242L749.242 477.575H785.242ZM826.656 477.575L824.424 490.247H804.408L803.184 497.303H817.584L815.424 509.327H801.024L797.64 528.551H781.656L790.656 477.575H826.656ZM841.214 516.455H856.622L854.462 528.551H823.07L832.07 477.575H848.054L841.214 516.455ZM884.476 477.575L875.476 528.551H859.492L868.492 477.575H884.476ZM931.583 528.551H915.599L903.215 502.919L898.679 528.551H882.695L891.695 477.575H907.679L919.991 503.639L924.599 477.575H940.583L931.583 528.551ZM961.557 490.247L960.477 496.583H976.317L974.157 508.607H958.317L957.021 515.807H975.021L972.789 528.551H938.805L947.805 477.575H981.789L979.557 490.247H961.557ZM1057.44 529.055C1053.12 529.055 1049.33 528.167 1046.07 526.391C1042.8 524.615 1040.28 522.119 1038.51 518.903C1036.73 515.639 1035.84 511.919 1035.84 507.743C1035.84 501.647 1037.09 496.271 1039.59 491.615C1042.13 486.911 1045.66 483.263 1050.17 480.671C1054.73 478.031 1059.96 476.711 1065.87 476.711C1070.28 476.711 1074.12 477.599 1077.39 479.375C1080.7 481.103 1083.24 483.575 1085.02 486.791C1086.8 489.959 1087.68 493.631 1087.68 497.807C1087.68 503.855 1086.41 509.255 1083.87 514.007C1081.37 518.759 1077.82 522.455 1073.21 525.095C1068.65 527.735 1063.4 529.055 1057.44 529.055ZM1059.89 514.151C1062.39 514.151 1064.55 513.503 1066.37 512.207C1068.24 510.863 1069.66 509.111 1070.62 506.951C1071.58 504.743 1072.06 502.367 1072.06 499.823C1072.06 497.183 1071.34 495.143 1069.9 493.703C1068.51 492.215 1066.49 491.471 1063.85 491.471C1061.36 491.471 1059.17 492.119 1057.3 493.415C1055.43 494.711 1053.99 496.463 1052.98 498.671C1052.02 500.831 1051.54 503.183 1051.54 505.727C1051.54 508.367 1052.24 510.431 1053.63 511.919C1055.07 513.407 1057.16 514.151 1059.89 514.151ZM1138.09 528.551H1122.11L1109.72 502.919L1105.19 528.551H1089.2L1098.2 477.575H1114.19L1126.5 503.639L1131.11 477.575H1147.09L1138.09 528.551ZM1194.34 477.575L1192.11 490.247H1178.58L1171.81 528.551H1155.82L1162.59 490.247H1149.2L1151.43 477.575H1194.34ZM1211.57 529.055C1205.33 529.055 1200.34 527.807 1196.59 525.311C1192.9 522.815 1191.05 519.167 1191.05 514.367C1191.05 513.887 1191.1 513.167 1191.19 512.207H1208.18C1208.04 513.695 1208.26 514.799 1208.83 515.519C1209.46 516.239 1210.46 516.599 1211.86 516.599C1212.72 516.599 1213.44 516.383 1214.02 515.951C1214.59 515.519 1214.88 514.895 1214.88 514.079C1214.88 512.927 1214.3 511.967 1213.15 511.199C1212.05 510.431 1210.25 509.519 1207.75 508.463C1205.02 507.311 1202.76 506.207 1200.98 505.151C1199.26 504.095 1197.74 502.655 1196.45 500.831C1195.15 499.007 1194.5 496.727 1194.5 493.991C1194.5 490.391 1195.39 487.295 1197.17 484.703C1198.99 482.063 1201.51 480.071 1204.73 478.727C1207.94 477.383 1211.62 476.711 1215.74 476.711C1219.44 476.711 1222.73 477.287 1225.61 478.439C1228.54 479.591 1230.82 481.271 1232.45 483.479C1234.13 485.639 1234.97 488.207 1234.97 491.183C1234.97 491.567 1234.92 492.239 1234.82 493.199H1217.62C1217.71 492.623 1217.76 492.239 1217.76 492.047C1217.76 491.135 1217.5 490.439 1216.97 489.959C1216.44 489.431 1215.72 489.167 1214.81 489.167C1213.99 489.167 1213.32 489.407 1212.79 489.887C1212.26 490.367 1212 490.991 1212 491.759C1212 492.815 1212.55 493.751 1213.66 494.567C1214.76 495.335 1216.51 496.295 1218.91 497.447C1221.65 498.743 1223.9 499.967 1225.68 501.119C1227.5 502.271 1229.06 503.807 1230.36 505.727C1231.66 507.599 1232.3 509.903 1232.3 512.639C1232.3 515.759 1231.46 518.567 1229.78 521.063C1228.15 523.559 1225.78 525.527 1222.66 526.967C1219.54 528.359 1215.84 529.055 1211.57 529.055Z" fill="white"/>
<rect x="582.464" y="582.449" width="755.072" height="48" rx="24" fill="#D9D9D9"/>
<g filter="url(#filter2_d_1_2)">
<rect x="1289.54" y="582.449" width="48" height="48" rx="24" fill="#CCFF00"/>
<path d="M1319.61 602.959L1311.05 598.679C1305.3 595.799 1302.94 598.159 1305.82 603.909L1306.69 605.649C1306.94 606.159 1306.94 606.749 1306.69 607.259L1305.82 608.989C1302.94 614.739 1305.29 617.099 1311.05 614.219L1319.61 609.939C1323.45 608.019 1323.45 604.879 1319.61 602.959ZM1316.38 607.199H1310.98C1310.57 607.199 1310.23 606.859 1310.23 606.449C1310.23 606.039 1310.57 605.699 1310.98 605.699H1316.38C1316.79 605.699 1317.13 606.039 1317.13 606.449C1317.13 606.859 1316.79 607.199 1316.38 607.199Z" fill="#171717"/>
</g>
<path opacity="0.5" d="M600.56 604.865C600.848 604.459 601.243 604.123 601.744 603.857C602.256 603.579 602.837 603.441 603.488 603.441C604.245 603.441 604.928 603.627 605.536 604.001C606.155 604.374 606.64 604.907 606.992 605.601C607.355 606.283 607.536 607.078 607.536 607.985C607.536 608.891 607.355 609.697 606.992 610.401C606.64 611.094 606.155 611.633 605.536 612.017C604.928 612.401 604.245 612.593 603.488 612.593C602.837 612.593 602.261 612.459 601.76 612.193C601.269 611.926 600.869 611.59 600.56 611.185V616.673H598.32V603.585H600.56V604.865ZM605.248 607.985C605.248 607.451 605.136 606.993 604.912 606.609C604.699 606.214 604.411 605.915 604.048 605.713C603.696 605.51 603.312 605.409 602.896 605.409C602.491 605.409 602.107 605.515 601.744 605.729C601.392 605.931 601.104 606.23 600.88 606.625C600.667 607.019 600.56 607.483 600.56 608.017C600.56 608.55 600.667 609.014 600.88 609.409C601.104 609.803 601.392 610.107 601.744 610.321C602.107 610.523 602.491 610.625 602.896 610.625C603.312 610.625 603.696 610.518 604.048 610.305C604.411 610.091 604.699 609.787 604.912 609.393C605.136 608.998 605.248 608.529 605.248 607.985ZM608.588 607.985C608.588 607.089 608.764 606.294 609.116 605.601C609.478 604.907 609.964 604.374 610.572 604.001C611.19 603.627 611.878 603.441 612.636 603.441C613.297 603.441 613.873 603.574 614.364 603.841C614.865 604.107 615.265 604.443 615.564 604.849V603.585H617.82V612.449H615.564V611.153C615.276 611.569 614.876 611.915 614.364 612.193C613.862 612.459 613.281 612.593 612.62 612.593C611.873 612.593 611.19 612.401 610.572 612.017C609.964 611.633 609.478 611.094 609.116 610.401C608.764 609.697 608.588 608.891 608.588 607.985ZM615.564 608.017C615.564 607.473 615.457 607.009 615.244 606.625C615.03 606.23 614.742 605.931 614.38 605.729C614.017 605.515 613.628 605.409 613.212 605.409C612.796 605.409 612.412 605.51 612.06 605.713C611.708 605.915 611.42 606.214 611.196 606.609C610.982 606.993 610.876 607.451 610.876 607.985C610.876 608.518 610.982 608.987 611.196 609.393C611.42 609.787 611.708 610.091 612.06 610.305C612.422 610.518 612.806 610.625 613.212 610.625C613.628 610.625 614.017 610.523 614.38 610.321C614.742 610.107 615.03 609.809 615.244 609.425C615.457 609.03 615.564 608.561 615.564 608.017ZM623.399 612.593C622.674 612.593 622.023 612.465 621.447 612.209C620.871 611.942 620.413 611.585 620.071 611.137C619.741 610.689 619.559 610.193 619.527 609.649H621.783C621.826 609.99 621.991 610.273 622.279 610.497C622.578 610.721 622.946 610.833 623.383 610.833C623.81 610.833 624.141 610.747 624.375 610.577C624.621 610.406 624.743 610.187 624.743 609.921C624.743 609.633 624.594 609.419 624.295 609.281C624.007 609.131 623.543 608.971 622.903 608.801C622.242 608.641 621.698 608.475 621.271 608.305C620.855 608.134 620.493 607.873 620.183 607.521C619.885 607.169 619.735 606.694 619.735 606.097C619.735 605.606 619.874 605.158 620.151 604.753C620.439 604.347 620.845 604.027 621.367 603.793C621.901 603.558 622.525 603.441 623.239 603.441C624.295 603.441 625.138 603.707 625.767 604.241C626.397 604.763 626.743 605.473 626.807 606.369H624.663C624.631 606.017 624.482 605.739 624.215 605.537C623.959 605.323 623.613 605.217 623.175 605.217C622.77 605.217 622.455 605.291 622.231 605.441C622.018 605.59 621.911 605.798 621.911 606.065C621.911 606.363 622.061 606.593 622.359 606.753C622.658 606.902 623.122 607.057 623.751 607.217C624.391 607.377 624.919 607.542 625.335 607.713C625.751 607.883 626.109 608.15 626.407 608.513C626.717 608.865 626.877 609.334 626.887 609.921C626.887 610.433 626.743 610.891 626.455 611.297C626.178 611.702 625.773 612.022 625.239 612.257C624.717 612.481 624.103 612.593 623.399 612.593ZM631.334 605.425V609.713C631.334 610.011 631.403 610.23 631.542 610.369C631.691 610.497 631.937 610.561 632.278 610.561H633.318V612.449H631.91C630.022 612.449 629.078 611.531 629.078 609.697V605.425H628.022V603.585H629.078V601.393H631.334V603.585H633.318V605.425H631.334ZM643.169 607.825C643.169 608.145 643.148 608.433 643.105 608.689H636.625C636.679 609.329 636.903 609.83 637.297 610.193C637.692 610.555 638.177 610.737 638.753 610.737C639.585 610.737 640.177 610.379 640.529 609.665H642.945C642.689 610.518 642.199 611.222 641.473 611.777C640.748 612.321 639.857 612.593 638.801 612.593C637.948 612.593 637.18 612.406 636.497 612.033C635.825 611.649 635.297 611.11 634.913 610.417C634.54 609.723 634.353 608.923 634.353 608.017C634.353 607.099 634.54 606.294 634.913 605.601C635.287 604.907 635.809 604.374 636.481 604.001C637.153 603.627 637.927 603.441 638.801 603.441C639.644 603.441 640.396 603.622 641.057 603.985C641.729 604.347 642.247 604.865 642.609 605.537C642.983 606.198 643.169 606.961 643.169 607.825ZM640.849 607.185C640.839 606.609 640.631 606.15 640.225 605.809C639.82 605.457 639.324 605.281 638.737 605.281C638.183 605.281 637.713 605.451 637.329 605.793C636.956 606.123 636.727 606.587 636.641 607.185H640.849ZM652.089 603.441C652.75 603.441 653.331 603.574 653.833 603.841C654.334 604.097 654.729 604.433 655.017 604.849V603.585H657.273V612.513C657.273 613.334 657.107 614.065 656.777 614.705C656.446 615.355 655.95 615.867 655.289 616.241C654.627 616.625 653.827 616.817 652.889 616.817C651.63 616.817 650.595 616.523 649.785 615.937C648.985 615.35 648.531 614.55 648.425 613.537H650.649C650.766 613.942 651.017 614.262 651.401 614.497C651.795 614.742 652.27 614.865 652.825 614.865C653.475 614.865 654.003 614.667 654.409 614.273C654.814 613.889 655.017 613.302 655.017 612.513V611.137C654.729 611.553 654.329 611.899 653.817 612.177C653.315 612.454 652.739 612.593 652.089 612.593C651.342 612.593 650.659 612.401 650.041 612.017C649.422 611.633 648.931 611.094 648.569 610.401C648.217 609.697 648.041 608.891 648.041 607.985C648.041 607.089 648.217 606.294 648.569 605.601C648.931 604.907 649.417 604.374 650.025 604.001C650.643 603.627 651.331 603.441 652.089 603.441ZM655.017 608.017C655.017 607.473 654.91 607.009 654.697 606.625C654.483 606.23 654.195 605.931 653.833 605.729C653.47 605.515 653.081 605.409 652.665 605.409C652.249 605.409 651.865 605.51 651.513 605.713C651.161 605.915 650.873 606.214 650.649 606.609C650.435 606.993 650.329 607.451 650.329 607.985C650.329 608.518 650.435 608.987 650.649 609.393C650.873 609.787 651.161 610.091 651.513 610.305C651.875 610.518 652.259 610.625 652.665 610.625C653.081 610.625 653.47 610.523 653.833 610.321C654.195 610.107 654.483 609.809 654.697 609.425C654.91 609.03 655.017 608.561 655.017 608.017ZM663.397 612.593C662.543 612.593 661.775 612.406 661.093 612.033C660.41 611.649 659.871 611.11 659.477 610.417C659.093 609.723 658.901 608.923 658.901 608.017C658.901 607.11 659.098 606.31 659.493 605.617C659.898 604.923 660.447 604.39 661.141 604.017C661.834 603.633 662.607 603.441 663.461 603.441C664.314 603.441 665.087 603.633 665.781 604.017C666.474 604.39 667.018 604.923 667.413 605.617C667.818 606.31 668.021 607.11 668.021 608.017C668.021 608.923 667.813 609.723 667.397 610.417C666.991 611.11 666.437 611.649 665.733 612.033C665.039 612.406 664.261 612.593 663.397 612.593ZM663.397 610.641C663.802 610.641 664.181 610.545 664.533 610.353C664.895 610.15 665.183 609.851 665.397 609.457C665.61 609.062 665.717 608.582 665.717 608.017C665.717 607.174 665.493 606.529 665.045 606.081C664.607 605.622 664.069 605.393 663.429 605.393C662.789 605.393 662.25 605.622 661.813 606.081C661.386 606.529 661.173 607.174 661.173 608.017C661.173 608.859 661.381 609.51 661.797 609.969C662.223 610.417 662.757 610.641 663.397 610.641ZM673.6 612.593C672.746 612.593 671.978 612.406 671.296 612.033C670.613 611.649 670.074 611.11 669.68 610.417C669.296 609.723 669.104 608.923 669.104 608.017C669.104 607.11 669.301 606.31 669.696 605.617C670.101 604.923 670.65 604.39 671.344 604.017C672.037 603.633 672.81 603.441 673.664 603.441C674.517 603.441 675.29 603.633 675.984 604.017C676.677 604.39 677.221 604.923 677.616 605.617C678.021 606.31 678.224 607.11 678.224 608.017C678.224 608.923 678.016 609.723 677.6 610.417C677.194 611.11 676.64 611.649 675.936 612.033C675.242 612.406 674.464 612.593 673.6 612.593ZM673.6 610.641C674.005 610.641 674.384 610.545 674.736 610.353C675.098 610.15 675.386 609.851 675.6 609.457C675.813 609.062 675.92 608.582 675.92 608.017C675.92 607.174 675.696 606.529 675.248 606.081C674.81 605.622 674.272 605.393 673.632 605.393C672.992 605.393 672.453 605.622 672.016 606.081C671.589 606.529 671.376 607.174 671.376 608.017C671.376 608.859 671.584 609.51 672 609.969C672.426 610.417 672.96 610.641 673.6 610.641ZM683.339 603.441C684 603.441 684.581 603.574 685.083 603.841C685.584 604.097 685.979 604.433 686.267 604.849V603.585H688.523V612.513C688.523 613.334 688.357 614.065 688.027 614.705C687.696 615.355 687.2 615.867 686.539 616.241C685.877 616.625 685.077 616.817 684.139 616.817C682.88 616.817 681.845 616.523 681.035 615.937C680.235 615.35 679.781 614.55 679.675 613.537H681.899C682.016 613.942 682.267 614.262 682.651 614.497C683.045 614.742 683.52 614.865 684.075 614.865C684.725 614.865 685.253 614.667 685.659 614.273C686.064 613.889 686.267 613.302 686.267 612.513V611.137C685.979 611.553 685.579 611.899 685.067 612.177C684.565 612.454 683.989 612.593 683.339 612.593C682.592 612.593 681.909 612.401 681.291 612.017C680.672 611.633 680.181 611.094 679.819 610.401C679.467 609.697 679.291 608.891 679.291 607.985C679.291 607.089 679.467 606.294 679.819 605.601C680.181 604.907 680.667 604.374 681.275 604.001C681.893 603.627 682.581 603.441 683.339 603.441ZM686.267 608.017C686.267 607.473 686.16 607.009 685.947 606.625C685.733 606.23 685.445 605.931 685.083 605.729C684.72 605.515 684.331 605.409 683.915 605.409C683.499 605.409 683.115 605.51 682.763 605.713C682.411 605.915 682.123 606.214 681.899 606.609C681.685 606.993 681.579 607.451 681.579 607.985C681.579 608.518 681.685 608.987 681.899 609.393C682.123 609.787 682.411 610.091 682.763 610.305C683.125 610.518 683.509 610.625 683.915 610.625C684.331 610.625 684.72 610.523 685.083 610.321C685.445 610.107 685.733 609.809 685.947 609.425C686.16 609.03 686.267 608.561 686.267 608.017ZM692.951 600.609V612.449H690.711V600.609H692.951ZM703.404 607.825C703.404 608.145 703.382 608.433 703.34 608.689H696.86C696.913 609.329 697.137 609.83 697.532 610.193C697.926 610.555 698.412 610.737 698.988 610.737C699.82 610.737 700.412 610.379 700.764 609.665H703.18C702.924 610.518 702.433 611.222 701.708 611.777C700.982 612.321 700.092 612.593 699.036 612.593C698.182 612.593 697.414 612.406 696.732 612.033C696.06 611.649 695.532 611.11 695.148 610.417C694.774 609.723 694.588 608.923 694.588 608.017C694.588 607.099 694.774 606.294 695.148 605.601C695.521 604.907 696.044 604.374 696.716 604.001C697.388 603.627 698.161 603.441 699.036 603.441C699.878 603.441 700.63 603.622 701.292 603.985C701.964 604.347 702.481 604.865 702.844 605.537C703.217 606.198 703.404 606.961 703.404 607.825ZM701.084 607.185C701.073 606.609 700.865 606.15 700.46 605.809C700.054 605.457 699.558 605.281 698.972 605.281C698.417 605.281 697.948 605.451 697.564 605.793C697.19 606.123 696.961 606.587 696.876 607.185H701.084ZM712.915 605.425H711.363V612.449H709.091V605.425H708.083V603.585H709.091V603.137C709.091 602.049 709.4 601.249 710.019 600.737C710.638 600.225 711.571 599.985 712.819 600.017V601.905C712.275 601.894 711.896 601.985 711.683 602.177C711.47 602.369 711.363 602.715 711.363 603.217V603.585H712.915V605.425ZM718.303 612.593C717.449 612.593 716.681 612.406 715.999 612.033C715.316 611.649 714.777 611.11 714.383 610.417C713.999 609.723 713.807 608.923 713.807 608.017C713.807 607.11 714.004 606.31 714.399 605.617C714.804 604.923 715.353 604.39 716.047 604.017C716.74 603.633 717.513 603.441 718.367 603.441C719.22 603.441 719.993 603.633 720.687 604.017C721.38 604.39 721.924 604.923 722.319 605.617C722.724 606.31 722.927 607.11 722.927 608.017C722.927 608.923 722.719 609.723 722.303 610.417C721.897 611.11 721.343 611.649 720.639 612.033C719.945 612.406 719.167 612.593 718.303 612.593ZM718.303 610.641C718.708 610.641 719.087 610.545 719.439 610.353C719.801 610.15 720.089 609.851 720.303 609.457C720.516 609.062 720.623 608.582 720.623 608.017C720.623 607.174 720.399 606.529 719.951 606.081C719.513 605.622 718.975 605.393 718.335 605.393C717.695 605.393 717.156 605.622 716.719 606.081C716.292 606.529 716.079 607.174 716.079 608.017C716.079 608.859 716.287 609.51 716.703 609.969C717.129 610.417 717.663 610.641 718.303 610.641ZM729.482 603.457C730.538 603.457 731.391 603.793 732.042 604.465C732.693 605.126 733.018 606.054 733.018 607.249V612.449H730.778V607.553C730.778 606.849 730.602 606.31 730.25 605.937C729.898 605.553 729.418 605.361 728.81 605.361C728.191 605.361 727.701 605.553 727.338 605.937C726.986 606.31 726.81 606.849 726.81 607.553V612.449H724.57V603.585H726.81V604.689C727.109 604.305 727.487 604.006 727.946 603.793C728.415 603.569 728.927 603.457 729.482 603.457ZM737.756 605.425V609.713C737.756 610.011 737.825 610.23 737.964 610.369C738.113 610.497 738.359 610.561 738.7 610.561H739.74V612.449H738.332C736.444 612.449 735.5 611.531 735.5 609.697V605.425H734.444V603.585H735.5V601.393H737.756V603.585H739.74V605.425H737.756ZM744.743 612.593C744.018 612.593 743.367 612.465 742.791 612.209C742.215 611.942 741.756 611.585 741.415 611.137C741.084 610.689 740.903 610.193 740.871 609.649H743.127C743.17 609.99 743.335 610.273 743.623 610.497C743.922 610.721 744.29 610.833 744.727 610.833C745.154 610.833 745.484 610.747 745.719 610.577C745.964 610.406 746.087 610.187 746.087 609.921C746.087 609.633 745.938 609.419 745.639 609.281C745.351 609.131 744.887 608.971 744.247 608.801C743.586 608.641 743.042 608.475 742.615 608.305C742.199 608.134 741.836 607.873 741.527 607.521C741.228 607.169 741.079 606.694 741.079 606.097C741.079 605.606 741.218 605.158 741.495 604.753C741.783 604.347 742.188 604.027 742.711 603.793C743.244 603.558 743.868 603.441 744.583 603.441C745.639 603.441 746.482 603.707 747.111 604.241C747.74 604.763 748.087 605.473 748.151 606.369H746.007C745.975 606.017 745.826 605.739 745.559 605.537C745.303 605.323 744.956 605.217 744.519 605.217C744.114 605.217 743.799 605.291 743.575 605.441C743.362 605.59 743.255 605.798 743.255 606.065C743.255 606.363 743.404 606.593 743.703 606.753C744.002 606.902 744.466 607.057 745.095 607.217C745.735 607.377 746.263 607.542 746.679 607.713C747.095 607.883 747.452 608.15 747.751 608.513C748.06 608.865 748.22 609.334 748.231 609.921C748.231 610.433 748.087 610.891 747.799 611.297C747.522 611.702 747.116 612.022 746.583 612.257C746.06 612.481 745.447 612.593 744.743 612.593ZM762.25 603.585V612.449H759.994V611.329C759.706 611.713 759.328 612.017 758.858 612.241C758.4 612.454 757.898 612.561 757.354 612.561C756.661 612.561 756.048 612.417 755.514 612.129C754.981 611.83 754.56 611.398 754.25 610.833C753.952 610.257 753.802 609.574 753.802 608.785V603.585H756.042V608.465C756.042 609.169 756.218 609.713 756.57 610.097C756.922 610.47 757.402 610.657 758.01 610.657C758.629 610.657 759.114 610.47 759.466 610.097C759.818 609.713 759.994 609.169 759.994 608.465V603.585H762.25ZM766.701 604.961C766.989 604.491 767.362 604.123 767.821 603.857C768.29 603.59 768.823 603.457 769.421 603.457V605.809H768.829C768.125 605.809 767.591 605.974 767.229 606.305C766.877 606.635 766.701 607.211 766.701 608.033V612.449H764.461V603.585H766.701V604.961ZM773.169 600.609V612.449H770.929V600.609H773.169ZM784.187 603.457C784.859 603.457 785.456 603.606 785.979 603.905C786.502 604.193 786.907 604.625 787.195 605.201C787.494 605.766 787.643 606.449 787.643 607.249V612.449H785.403V607.553C785.403 606.849 785.227 606.31 784.875 605.937C784.523 605.553 784.043 605.361 783.435 605.361C782.816 605.361 782.326 605.553 781.963 605.937C781.611 606.31 781.435 606.849 781.435 607.553V612.449H779.195V600.609H781.435V604.689C781.723 604.305 782.107 604.006 782.587 603.793C783.067 603.569 783.6 603.457 784.187 603.457ZM798.013 607.825C798.013 608.145 797.992 608.433 797.949 608.689H791.469C791.522 609.329 791.746 609.83 792.141 610.193C792.536 610.555 793.021 610.737 793.597 610.737C794.429 610.737 795.021 610.379 795.373 609.665H797.789C797.533 610.518 797.042 611.222 796.317 611.777C795.592 612.321 794.701 612.593 793.645 612.593C792.792 612.593 792.024 612.406 791.341 612.033C790.669 611.649 790.141 611.11 789.757 610.417C789.384 609.723 789.197 608.923 789.197 608.017C789.197 607.099 789.384 606.294 789.757 605.601C790.13 604.907 790.653 604.374 791.325 604.001C791.997 603.627 792.77 603.441 793.645 603.441C794.488 603.441 795.24 603.622 795.901 603.985C796.573 604.347 797.09 604.865 797.453 605.537C797.826 606.198 798.013 606.961 798.013 607.825ZM795.693 607.185C795.682 606.609 795.474 606.15 795.069 605.809C794.664 605.457 794.168 605.281 793.581 605.281C793.026 605.281 792.557 605.451 792.173 605.793C791.8 606.123 791.57 606.587 791.485 607.185H795.693ZM801.888 604.961C802.176 604.491 802.549 604.123 803.008 603.857C803.477 603.59 804.011 603.457 804.608 603.457V605.809H804.016C803.312 605.809 802.779 605.974 802.416 606.305C802.064 606.635 801.888 607.211 801.888 608.033V612.449H799.648V603.585H801.888V604.961ZM814.357 607.825C814.357 608.145 814.335 608.433 814.293 608.689H807.813C807.866 609.329 808.09 609.83 808.485 610.193C808.879 610.555 809.365 610.737 809.941 610.737C810.773 610.737 811.365 610.379 811.717 609.665H814.133C813.877 610.518 813.386 611.222 812.661 611.777C811.935 612.321 811.045 612.593 809.989 612.593C809.135 612.593 808.367 612.406 807.685 612.033C807.013 611.649 806.485 611.11 806.101 610.417C805.727 609.723 805.541 608.923 805.541 608.017C805.541 607.099 805.727 606.294 806.101 605.601C806.474 604.907 806.997 604.374 807.669 604.001C808.341 603.627 809.114 603.441 809.989 603.441C810.831 603.441 811.583 603.622 812.245 603.985C812.917 604.347 813.434 604.865 813.797 605.537C814.17 606.198 814.357 606.961 814.357 607.825ZM812.037 607.185C812.026 606.609 811.818 606.15 811.413 605.809C811.007 605.457 810.511 605.281 809.925 605.281C809.37 605.281 808.901 605.451 808.517 605.793C808.143 606.123 807.914 606.587 807.829 607.185H812.037ZM816.984 612.561C816.578 612.561 816.242 612.438 815.976 612.193C815.72 611.937 815.592 611.622 815.592 611.249C815.592 610.875 815.72 610.566 815.976 610.321C816.242 610.065 816.578 609.937 816.984 609.937C817.378 609.937 817.704 610.065 817.96 610.321C818.216 610.566 818.344 610.875 818.344 611.249C818.344 611.622 818.216 611.937 817.96 612.193C817.704 612.438 817.378 612.561 816.984 612.561ZM821.14 612.561C820.735 612.561 820.399 612.438 820.132 612.193C819.876 611.937 819.748 611.622 819.748 611.249C819.748 610.875 819.876 610.566 820.132 610.321C820.399 610.065 820.735 609.937 821.14 609.937C821.535 609.937 821.86 610.065 822.116 610.321C822.372 610.566 822.5 610.875 822.5 611.249C822.5 611.622 822.372 611.937 822.116 612.193C821.86 612.438 821.535 612.561 821.14 612.561ZM825.296 612.561C824.891 612.561 824.555 612.438 824.288 612.193C824.032 611.937 823.904 611.622 823.904 611.249C823.904 610.875 824.032 610.566 824.288 610.321C824.555 610.065 824.891 609.937 825.296 609.937C825.691 609.937 826.016 610.065 826.272 610.321C826.528 610.566 826.656 610.875 826.656 611.249C826.656 611.622 826.528 611.937 826.272 612.193C826.016 612.438 825.691 612.561 825.296 612.561Z" fill="black"/>
<defs>
<filter id="filter0_d_1_2" x="30.1439" y="15.7081" width="52.7861" height="46.4256" filterUnits="userSpaceOnUse" color-interpolation-filters="sRGB">
<feFlood flood-opacity="0" result="BackgroundImageFix"/>
<feColorMatrix in="SourceAlpha" type="matrix" values="0 0 0 0 0 0 0 0 0 0 0 0 0 0 0 0 0 0 127 0" result="hardAlpha"/>
<feOffset dx="1" dy="1"/>
<feComposite in2="hardAlpha" operator="out"/>
<feColorMatrix type="matrix" values="0 0 0 0 0.509906 0 0 0 0 0.6125 0 0 0 0 0.0995312 0 0 0 1 0"/>
<feBlend mode="normal" in2="BackgroundImageFix" result="effect1_dropShadow_1_2"/>
<feBlend mode="normal" in="SourceGraphic" in2="effect1_dropShadow_1_2" result="shape"/>
</filter>
<filter id="filter1_d_1_2" x="103.976" y="91.1418" width="20.761" height="24.5664" filterUnits="userSpaceOnUse" color-interpolation-filters="sRGB">
<feFlood flood-opacity="0" result="BackgroundImageFix"/>
<feColorMatrix in="SourceAlpha" type="matrix" values="0 0 0 0 0 0 0 0 0 0 0 0 0 0 0 0 0 0 127 0" result="hardAlpha"/>
<feOffset dy="-1"/>
<feComposite in2="hardAlpha" operator="out"/>
<feColorMatrix type="matrix" values="0 0 0 0 0.509906 0 0 0 0 0.6125 0 0 0 0 0.0995312 0 0 0 1 0"/>
<feBlend mode="normal" in2="BackgroundImageFix" result="effect1_dropShadow_1_2"/>
<feBlend mode="normal" in="SourceGraphic" in2="effect1_dropShadow_1_2" result="shape"/>
</filter>
<filter id="filter2_d_1_2" x="1285.54" y="582.449" width="52" height="48" filterUnits="userSpaceOnUse" color-interpolation-filters="sRGB">
<feFlood flood-opacity="0" result="BackgroundImageFix"/>
<feColorMatrix in="SourceAlpha" type="matrix" values="0 0 0 0 0 0 0 0 0 0 0 0 0 0 0 0 0 0 127 0" result="hardAlpha"/>
<feOffset dx="-4"/>
<feComposite in2="hardAlpha" operator="out"/>
<feColorMatrix type="matrix" values="0 0 0 0 0.509906 0 0 0 0 0.6125 0 0 0 0 0.0995312 0 0 0 1 0"/>
<feBlend mode="normal" in2="BackgroundImageFix" result="effect1_dropShadow_1_2"/>
<feBlend mode="normal" in="SourceGraphic" in2="effect1_dropShadow_1_2" result="shape"/>
</filter>
</defs>
</svg>
